<?xml version="1.0" standalone="no"?>
<!DOCTYPE svg PUBLIC "-//W3C//DTD SVG 20010904//EN"
 "http://www.w3.org/TR/2001/REC-SVG-20010904/DTD/svg10.dtd">
<svg version="1.0" xmlns="http://www.w3.org/2000/svg"
 width="980.198285pt" height="222.816408pt" viewBox="0 0 980.198285 222.816408"
 preserveAspectRatio="xMidYMid meet">
<metadata>
Created by potrace 1.12, written by Peter Selinger 2001-2015
</metadata>
<g transform="translate(-5.801715,225.972330) scale(0.100000,-0.100000)"
fill="#000000" stroke="none">
<path d="M1737 2215 c-70 -24 -135 -49 -145 -54 -15 -9 -15 -10 6 -11 14 0 22
-6 21 -17 0 -11 -3 -13 -6 -6 -3 8 -14 11 -30 7 -20 -5 -24 -4 -18 6 6 10 4
12 -9 7 -10 -4 -29 -10 -42 -13 -13 -3 -21 -10 -18 -15 3 -5 -1 -7 -8 -4 -14
6 -100 -23 -433 -143 -290 -106 -411 -151 -404 -151 3 -1 102 24 220 55 118
31 300 79 404 106 259 67 296 78 290 88 -5 9 48 30 74 29 12 0 11 -3 -4 -9
-19 -8 -19 -9 1 -9 12 -1 24 6 28 14 3 8 11 15 18 15 9 0 8 -3 -2 -10 -22 -14
-4 -12 78 9 75 20 113 39 55 28 -19 -4 -33 -2 -33 3 0 6 33 10 74 10 54 0 77
4 86 15 15 18 5 32 -25 37 -11 2 -19 -2 -18 -8 2 -12 -116 -39 -126 -29 -2 3
3 5 12 5 10 0 17 4 17 9 0 5 9 11 20 14 11 3 20 12 20 21 0 9 4 16 9 16 5 0
11 7 15 15 3 8 4 15 3 15 -1 0 -59 -20 -130 -45z"/>
<path d="M2315 2170 l-20 -9 20 0 c11 0 27 4 35 9 13 9 13 10 0 9 -8 0 -24 -4
-35 -9z"/>
<path d="M2872 2140 c-60 -9 -73 -16 -47 -27 11 -4 20 -2 23 5 2 7 10 12 18
12 9 0 13 -4 9 -9 -3 -5 5 -11 17 -13 14 -2 25 -13 29 -28 l7 -25 1 25 c1 14
4 35 7 48 4 12 2 21 -2 21 -5 -1 -33 -5 -62 -9z"/>
<path d="M1965 2073 c-118 -25 -164 -38 -188 -55 -17 -11 -35 -17 -47 -13 -11
4 -131 -23 -272 -60 -480 -127 -493 -131 -507 -167 -7 -19 -40 -33 -203 -86
-106 -35 -213 -65 -236 -66 -52 -4 -57 -8 -43 -34 22 -41 -48 -148 -109 -167
-23 -7 -24 -11 -11 -51 18 -56 22 -86 11 -79 -6 4 -10 -6 -10 -27 l1 -33 13
24 c13 23 14 20 26 -49 11 -65 11 -75 -4 -85 -27 -21 -20 -37 14 -30 45 10
107 -4 140 -31 l29 -25 45 33 c25 17 46 37 46 43 0 21 -85 76 -141 92 l-57 16
-19 78 -19 79 37 36 c35 34 55 71 75 138 8 27 17 31 114 58 58 15 160 44 226
63 139 40 177 44 172 18 -2 -13 -30 -27 -93 -48 -75 -25 -91 -34 -93 -52 -3
-20 1 -23 35 -23 21 0 72 9 113 19 141 36 265 72 274 81 5 5 15 6 24 3 11 -5
13 -3 7 7 -5 9 -4 11 4 6 7 -4 35 -2 64 5 40 9 47 14 32 19 -11 4 -22 3 -23
-1 -2 -5 -8 -6 -14 -3 -5 4 4 21 22 39 18 18 29 38 26 44 -11 18 -106 13 -250
-14 -142 -26 -216 -32 -216 -15 0 10 18 15 155 49 44 11 112 28 150 39 91 25
159 40 215 48 25 3 90 16 145 29 55 13 125 27 155 31 34 5 48 10 36 14 -10 3
24 6 74 7 79 1 95 4 111 22 10 11 19 27 19 35 0 11 12 13 63 9 36 -4 65 -11
70 -19 4 -8 15 -14 23 -14 9 0 14 -7 12 -17 -3 -15 -16 -18 -86 -21 -45 -2
-82 -7 -82 -12 0 -6 -7 -10 -15 -10 -10 0 -15 -10 -15 -30 0 -16 -4 -30 -10
-30 -5 0 -10 -9 -10 -20 0 -19 -14 -24 -57 -23 -7 1 -13 -2 -13 -6 0 -3 51 -6
113 -6 106 0 115 -2 166 -30 99 -55 151 -149 151 -275 0 -105 -28 -169 -109
-249 -82 -83 -185 -135 -365 -185 -153 -43 -216 -73 -274 -129 -88 -86 -114
-146 -152 -353 -12 -66 -30 -162 -40 -214 -21 -106 -49 -263 -57 -327 l-5 -41
35 7 c48 11 57 19 57 47 0 14 16 98 35 186 35 159 75 276 120 353 24 41 91
111 103 108 4 0 6 3 5 8 -3 10 49 50 94 73 17 8 82 29 145 46 282 77 431 157
564 303 106 117 172 299 160 437 -7 82 -33 170 -50 170 -7 0 -22 9 -34 20 -12
11 -25 20 -30 20 -5 0 -16 8 -25 18 -15 16 -15 19 3 29 16 11 20 9 28 -15 8
-25 9 -25 14 -5 7 25 -37 97 -53 88 -5 -4 -9 -3 -8 2 4 22 -3 25 -20 9 -11
-10 -17 -25 -14 -35 4 -18 1 -18 -49 -6 -29 7 -76 20 -104 31 -42 15 -51 22
-50 40 1 20 8 23 60 29 34 4 53 10 46 15 -7 4 -10 12 -6 18 3 6 -14 17 -41 26
-64 21 -163 32 -163 18 0 -6 -13 -7 -37 -1 -39 9 -112 10 -148 2z m25 -39 c0
-15 -4 -23 -11 -19 -6 4 -8 13 -5 20 3 8 -3 16 -12 18 -12 3 -11 5 6 6 17 1
22 -4 22 -25z m282 -6 c-2 -10 -8 -18 -13 -18 -5 0 -9 8 -9 18 0 10 6 19 14
19 8 0 11 -8 8 -19z"/>
<path d="M2981 1905 c0 -42 2 -46 11 -28 7 15 7 30 0 50 -10 26 -10 24 -11
-22z"/>
<path d="M2890 1884 c0 -27 4 -35 16 -32 9 2 21 13 25 26 6 15 5 21 -1 17 -6
-3 -10 -2 -10 3 0 6 -7 12 -15 16 -12 4 -15 -3 -15 -30z"/>
<path d="M2890 1714 c0 -14 3 -14 15 -4 8 7 15 14 15 16 0 2 -7 4 -15 4 -8 0
-15 -7 -15 -16z"/>
<path d="M8776 1650 c-127 -50 -183 -187 -125 -307 27 -56 66 -81 203 -129
147 -52 185 -96 138 -154 -14 -18 -30 -23 -64 -24 -50 -1 -83 20 -99 62 -8 21
-14 22 -105 22 l-97 0 6 -42 c9 -65 52 -118 131 -158 63 -32 75 -34 159 -34
75 0 102 4 142 22 95 44 138 108 138 207 0 117 -53 171 -232 235 -108 39 -143
64 -143 103 0 42 28 67 77 67 42 0 85 -30 85 -58 0 -8 30 -12 100 -12 97 0
100 1 100 23 -1 71 -77 156 -162 182 -72 21 -191 19 -252 -5z"/>
<path d="M9447 1656 c-106 -39 -161 -113 -162 -216 0 -112 54 -167 220 -225
108 -38 144 -59 156 -91 10 -29 -10 -66 -46 -83 -43 -21 -105 2 -125 46 l-15
33 -97 0 c-109 0 -108 1 -83 -71 32 -91 122 -151 246 -164 183 -19 319 79 319
230 0 113 -64 176 -234 235 -136 47 -172 88 -130 148 22 32 96 31 129 -3 14
-13 25 -29 25 -35 0 -12 186 -14 194 -2 8 14 -12 76 -37 112 -12 18 -47 47
-77 64 -49 27 -65 31 -150 33 -64 2 -108 -1 -133 -11z"/>
<path d="M3538 1649 c-17 -9 -18 -38 -18 -374 0 -350 1 -365 19 -375 12 -6
105 -10 234 -10 173 0 217 3 226 14 7 9 11 38 9 73 l-3 58 -147 3 -146 3 -4
77 c-2 42 -2 80 0 85 2 4 61 7 133 7 71 0 129 3 130 8 16 142 13 145 -143 139
l-118 -4 0 78 0 78 148 3 147 3 3 60 c3 47 0 62 -14 72 -22 16 -429 18 -456 2z"/>
<path d="M4082 1648 c-7 -7 -12 -18 -12 -24 0 -7 56 -167 125 -356 84 -233
131 -349 146 -360 16 -14 40 -18 106 -18 46 0 92 4 102 10 10 5 25 28 34 52
107 288 238 662 235 675 -4 20 -36 31 -101 32 -37 1 -53 -4 -70 -22 -15 -14
-51 -107 -106 -272 -46 -138 -87 -254 -91 -258 -4 -4 -44 101 -89 235 -106
312 -100 298 -128 309 -35 13 -137 11 -151 -3z"/>
<path d="M4922 1644 l-22 -15 0 -354 c0 -308 2 -356 16 -369 13 -14 48 -16
229 -16 117 0 220 3 229 6 12 5 16 21 16 75 l0 69 -150 0 -150 0 0 85 0 84
133 3 132 3 3 58 c4 87 1 89 -142 86 l-121 -3 -3 77 -3 76 148 3 148 3 3 58
c2 35 -2 64 -9 73 -18 22 -425 20 -457 -2z"/>
<path d="M5518 1649 c-17 -9 -18 -38 -18 -372 0 -269 3 -366 12 -375 16 -16
140 -16 156 0 9 9 12 74 12 230 0 120 3 218 8 218 4 -1 72 -98 152 -216 80
-119 154 -222 165 -230 28 -20 149 -19 169 2 14 13 16 61 16 369 l0 354 -22
15 c-27 19 -127 21 -151 4 -15 -11 -17 -40 -19 -233 l-3 -220 -152 226 c-105
157 -159 228 -175 233 -36 9 -131 6 -150 -5z"/>
<path d="M6282 1647 c-16 -18 -23 -97 -11 -118 8 -17 22 -19 109 -19 l100 0 0
-300 c0 -286 1 -300 19 -310 27 -14 134 -13 149 2 9 9 12 91 12 310 l0 297
103 3 102 3 3 60 c3 47 0 62 -14 72 -26 19 -557 19 -572 0z"/>
<path d="M7196 1645 c-14 -15 -16 -55 -16 -370 0 -308 2 -356 16 -369 20 -21
146 -23 162 -3 7 8 13 67 14 138 l3 124 95 1 c179 1 274 62 301 192 24 116
-27 223 -129 270 -54 26 -66 27 -243 30 -162 3 -188 1 -203 -13z m360 -168
c33 -39 33 -99 -1 -132 -22 -22 -32 -25 -105 -25 l-80 0 0 88 c0 49 3 92 8 96
4 4 40 6 81 4 65 -3 76 -6 97 -31z"/>
<path d="M8083 1643 c-11 -10 -41 -74 -66 -143 -26 -69 -83 -222 -127 -340
-44 -118 -80 -225 -80 -236 0 -28 17 -34 96 -34 74 0 89 11 115 88 l16 47 149
0 148 0 19 -50 c30 -80 39 -86 125 -83 56 2 77 7 85 19 11 17 11 19 -177 514
-46 122 -84 207 -97 218 -16 13 -40 17 -104 17 -65 0 -87 -4 -102 -17z m156
-337 c23 -65 40 -121 38 -123 -3 -2 -45 -2 -95 -1 l-90 3 46 128 c24 71 48
125 52 120 4 -4 26 -62 49 -127z"/>
<path d="M1670 1644 c0 -6 21 -40 48 -75 48 -64 51 -66 147 -87 l40 -8 -72
-18 c-62 -15 -77 -16 -102 -5 -29 13 -30 14 -9 25 18 10 16 12 -22 17 -24 3
-57 0 -78 -8 -21 -8 -30 -14 -22 -14 11 -1 11 -4 2 -13 -10 -10 -14 -10 -21 0
-5 9 -27 5 -92 -17 -316 -110 -672 -296 -880 -461 -32 -25 -83 -65 -114 -90
-131 -103 -332 -335 -406 -470 l-31 -55 33 40 c235 284 605 539 1054 727 117
49 374 138 490 169 61 16 118 32 127 35 15 4 18 -5 20 -69 l3 -75 174 170 c95
93 170 172 167 175 -3 4 -12 1 -18 -5 -18 -18 -33 -15 -18 3 12 14 10 15 -13
11 -15 -3 -27 -1 -27 3 0 15 -63 22 -73 9 -6 -9 -7 -7 -3 6 6 16 2 18 -25 12
-19 -3 -38 -1 -46 6 -10 8 -17 8 -25 0 -13 -13 -70 -16 -81 -5 -4 3 0 15 10
25 15 17 15 18 -1 18 -9 0 -15 -4 -12 -9 3 -5 -6 -8 -21 -8 -24 0 -25 1 -10
12 16 11 15 13 -8 17 -14 3 -25 2 -25 -2 0 -11 -43 1 -52 14 -6 8 -8 8 -8 0z
m223 -98 c4 -11 24 -14 81 -13 41 1 78 -1 82 -5 15 -16 -9 -23 -66 -21 -33 1
-62 -2 -65 -7 -11 -18 -55 12 -55 37 0 25 15 31 23 9z m-250 -86 c-3 -11 -12
-20 -19 -20 -16 0 -16 2 -8 24 9 24 33 20 27 -4z m61 -29 c3 -5 -3 -11 -14
-14 -13 -3 -20 0 -20 9 0 15 26 19 34 5z m-237 -83 c-21 -7 -32 -7 -40 1 -8 8
0 11 29 10 39 -1 39 -1 11 -11z"/>
<path d="M2762 1610 c-1 -28 2 -40 7 -32 4 8 11 13 15 13 22 -3 25 0 14 13 -7
8 -16 12 -20 10 -4 -2 -9 6 -11 18 -2 13 -5 3 -5 -22z"/>
<path d="M2856 1613 c9 -38 14 -42 14 -10 0 14 -5 29 -10 32 -7 4 -8 -3 -4
-22z"/>
<path d="M1083 1472 c-56 -31 -100 -58 -99 -60 5 -5 271 60 280 69 5 4 0 6
-11 3 -14 -4 -25 2 -37 20 -9 14 -20 26 -24 26 -4 0 -53 -26 -109 -58z"/>
<path d="M777 1464 c-4 -4 -7 -16 -7 -26 0 -25 -21 -31 -64 -20 -20 6 -36 8
-36 4 0 -3 14 -21 32 -39 l32 -33 -40 -35 -39 -36 40 6 c22 4 45 7 50 8 6 1
12 -23 15 -53 l5 -55 19 43 c23 52 29 56 57 42 20 -11 21 -10 14 19 -6 28 -4
30 30 37 l36 6 -30 19 c-17 10 -31 21 -31 24 0 3 11 23 25 45 28 45 24 49 -20
20 -39 -26 -52 -25 -68 5 -7 14 -16 23 -20 19z"/>
<path d="M2973 1419 c-2 -16 1 -19 9 -11 6 6 27 9 47 6 34 -3 35 -3 6 5 -16 5
-37 11 -45 15 -11 5 -16 0 -17 -15z"/>
<path d="M1405 1160 c-11 -5 -85 -35 -165 -66 -255 -99 -497 -229 -656 -350
-103 -79 -118 -97 -107 -129 l8 -26 34 26 c19 13 36 23 38 21 2 -2 -6 -28 -18
-57 -24 -63 -27 -118 -8 -174 l14 -40 57 0 c67 0 101 -21 136 -83 28 -50 34
-51 157 -17 221 61 342 94 372 100 40 8 39 6 48 79 l7 59 -34 -7 c-19 -3 -116
-28 -217 -56 -100 -27 -193 -52 -204 -55 -55 -15 55 58 204 135 179 94 223
127 261 196 28 52 57 169 45 181 -13 13 -317 -119 -475 -207 -48 -26 -89 -47
-91 -45 -1 2 5 37 14 78 l18 74 61 38 c34 21 124 75 201 120 114 66 316 194
334 211 7 7 -13 3 -34 -6z"/>
<path d="M2938 881 c-92 -24 -119 -27 -185 -21 -64 6 -94 3 -166 -16 -100 -25
-116 -34 -66 -35 32 -1 32 -2 9 -9 -36 -12 -82 -12 -75 0 3 5 0 8 -7 6 -7 -2
-33 -9 -58 -15 -67 -16 -545 -142 -547 -144 -5 -6 -22 -121 -19 -125 5 -4 427
103 526 133 25 8 151 42 280 75 129 34 260 68 290 76 179 47 179 48 164 88 -8
21 -19 20 -146 -13z m-139 -35 c-2 -2 -33 -12 -67 -21 -53 -13 -67 -14 -80 -3
-13 11 -10 14 24 19 47 7 129 11 123 5z m-274 -75 c-23 -10 -117 -24 -97 -15
6 3 10 9 7 13 -2 5 21 8 53 9 39 1 51 -2 37 -7z"/>
<path d="M1769 743 c-5 -14 -8 -30 -6 -36 1 -5 8 7 14 27 13 42 7 49 -8 9z"/>
<path d="M1714 489 c-7 -12 -16 -105 -10 -98 5 5 24 109 20 109 -1 0 -6 -5
-10 -11z"/>
</g>
</svg>
